<svg width="174" height="32" viewBox="0 0 174 32" fill="none" xmlns="http://www.w3.org/2000/svg">
<g id="logo_fincantieri_claim_white">
<g id="Group">
<path id="Vector" d="M173.913 0.0106238H169.597V18.9205H173.913V0.0106238ZM168.064 18.9188L163.227 11.3018C163.227 11.3018 167.254 10.586 167.216 5.76106C167.177 0.9361 163.227 0.0314211 162.533 0.0106238C161.839 -0.0119065 149.268 0.0106238 149.268 0.0106238V18.9205H153.677V11.5721L157.965 11.6103L162.646 18.9205H168.062L168.064 18.9188ZM162.568 5.85811C162.568 8.15274 160.785 8.23766 160.785 8.23766H153.677V3.57042H160.785C160.785 3.57042 162.568 3.56348 162.568 5.85811ZM136.671 18.9188H145.779V15.1545H138.181C138.181 15.1545 135.049 15.1129 135.049 11.1215V10.969H145.777V7.46123H135.057C135.232 3.81132 138.181 3.77319 138.181 3.77319H145.779V0.0106238H136.671C130.166 0.0106238 130.166 7.80785 130.166 7.80785V11.1233C130.166 11.1233 130.166 18.9205 136.671 18.9205M123.49 18.9188H127.806V0.0106238H123.49V18.9205V18.9188ZM114.277 3.77319H120.89V0.0106238H103.533V3.77492H109.87V18.9205H114.279V3.77319H114.277ZM60.7336 0.0106238H51.6241C45.121 0.0106238 45.121 7.80785 45.121 7.80785V11.1233C45.121 11.1233 45.121 18.9205 51.6241 18.9205H60.7336V15.1562H53.1362C53.1362 15.1562 50.0053 15.1146 50.0053 11.1233V7.80785C50.0053 3.81652 53.1362 3.77492 53.1362 3.77492H60.7336V0.0106238ZM38.1407 18.9188H42.6404V6.63454C42.6404 6.63454 43.0862 -0.00670719 35.3874 0.0106238C27.6904 0.0262218 25.2832 0.0106238 25.2832 0.0106238V18.9205H29.7829V3.77319H35.3874C35.3874 3.77319 38.1477 3.76626 38.1407 6.59641C38.1338 9.42657 38.1407 18.9188 38.1407 18.9188ZM17.8449 18.9188H22.1611V0.0106238H17.8449V18.9205V18.9188ZM4.33184 11.3018H15.4552V7.80612H4.33184C4.33184 3.81478 7.42429 3.77319 7.42429 3.77319H15.4552V0.0106238C15.4552 0.0106238 15.3154 -0.0119065 7.42429 0.0106238C-0.465035 0.0314211 0.00521296 7.80612 0.00521296 7.80612V18.9188H4.33184V11.3018ZM71.2329 0.0106238L62.5307 18.9205H67.2105L69.2768 14.5531L73.3149 14.5739L77.2919 14.5531L79.3582 18.9205H84.0362L75.3375 0.0106238H71.2329ZM70.9689 10.8564L73.3202 5.73506L75.6697 10.8564H70.9689ZM85.4208 0.0106238V18.9205H89.9205V3.77319H95.525C95.525 3.77319 98.2853 3.76626 98.2783 6.59641C98.2713 9.42657 98.2783 18.9188 98.2783 18.9188H102.778V6.63454C102.778 6.63454 103.224 -0.00670719 95.5267 0.0106238C87.8279 0.0262218 85.4225 0.0106238 85.4225 0.0106238" fill="#011C35"/>
<path id="Vector_2" d="M6.15872 25.1732V25.8803C6.15872 25.9254 6.14299 25.9479 6.10977 25.9479H2.05061V28.0328H5.91398C5.94545 28.0328 5.96293 28.0554 5.96293 28.1004V28.8075C5.96293 28.8526 5.9472 28.8751 5.91398 28.8751H2.05061V31.882C2.05061 31.915 2.03487 31.9306 2.00166 31.9306H1.0227C0.989488 31.9306 0.973755 31.915 0.973755 31.882V25.1524C0.973755 25.1195 0.989488 25.1039 1.0227 25.1039H6.10977C6.129 25.1039 6.14473 25.1264 6.15872 25.1715" fill="#011C35"/>
<path id="Vector_3" d="M13.3226 31.4575C12.8034 31.0953 12.5447 30.4905 12.5447 29.6447V25.1542C12.5447 25.1213 12.5604 25.1057 12.5936 25.1057H13.5726C13.6058 25.1057 13.6215 25.1213 13.6215 25.1542V29.461C13.6215 30.0693 13.7824 30.5026 14.1058 30.7608C14.4292 31.0191 14.9326 31.149 15.6161 31.149C16.2997 31.149 16.8206 31.0208 17.137 30.766C17.4534 30.5113 17.6108 30.0762 17.6108 29.4627V25.156C17.6108 25.123 17.6265 25.1074 17.6597 25.1074H18.6387C18.6719 25.1074 18.6876 25.123 18.6876 25.156V29.6464C18.6876 30.5009 18.4306 31.1057 17.9202 31.4645C17.408 31.8232 16.6406 32.0035 15.6161 32.0035C14.5917 32.0035 13.8418 31.8232 13.3226 31.461" fill="#011C35"/>
<path id="Vector_4" d="M31.2584 25.1733V25.8804C31.2584 25.8995 31.2514 25.9168 31.2392 25.9289C31.2252 25.9428 31.213 25.948 31.2007 25.948H28.4911V31.8821C28.4911 31.9151 28.4754 31.9307 28.4422 31.9307H27.4632C27.43 31.9307 27.4143 31.9151 27.4143 31.8821V25.948H24.7151C24.6697 25.948 24.647 25.9255 24.647 25.8804V25.1733C24.647 25.1282 24.6697 25.1057 24.7151 25.1057H31.2007C31.2269 25.1057 31.2462 25.1282 31.2602 25.1733" fill="#011C35"/>
<path id="Vector_5" d="M37.9923 31.4575C37.4731 31.0953 37.2144 30.4905 37.2144 29.6447V25.1542C37.2144 25.1213 37.2301 25.1057 37.2633 25.1057H38.2423C38.2755 25.1057 38.2912 25.1213 38.2912 25.1542V29.461C38.2912 30.0693 38.452 30.5026 38.7754 30.7608C39.0988 31.0191 39.6023 31.149 40.2858 31.149C40.9693 31.149 41.4903 31.0208 41.8067 30.766C42.1231 30.5113 42.2804 30.0762 42.2804 29.4627V25.156C42.2804 25.123 42.2962 25.1074 42.3294 25.1074H43.3083C43.3416 25.1074 43.3573 25.123 43.3573 25.156V29.6464C43.3573 30.5009 43.1003 31.1057 42.5899 31.4645C42.0777 31.8232 41.3102 32.0035 40.2858 32.0035C39.2614 32.0035 38.5115 31.8232 37.9923 31.461" fill="#011C35"/>
<path id="Vector_6" d="M54.7778 28.0537C55.0103 27.8925 55.1257 27.6048 55.1257 27.1906V27.0745C55.1257 26.6551 55.0033 26.3622 54.7586 26.1976C54.5138 26.0329 54.1153 25.9497 53.5594 25.9497H51.2606V28.2964H53.6765C54.1782 28.2964 54.5453 28.2149 54.7761 28.0537M56.3669 31.9133C56.3529 31.9272 56.3406 31.9324 56.3284 31.9324H55.3407C55.3075 31.9324 55.2883 31.9203 55.2813 31.8943C55.2428 31.7903 55.2218 31.5494 55.2218 31.1664V30.3414C55.2218 29.8752 55.0925 29.5598 54.8355 29.3917C54.5785 29.2236 54.166 29.1404 53.5978 29.1404H51.2606V31.8839C51.2606 31.9168 51.2448 31.9324 51.2116 31.9324H50.2327C50.1994 31.9324 50.1837 31.9168 50.1837 31.8839V25.1542C50.1837 25.1213 50.1994 25.1057 50.2327 25.1057H53.7045C54.5785 25.1057 55.2113 25.2357 55.6064 25.4939C56.0015 25.7522 56.1973 26.1924 56.1973 26.8128V27.0173C56.1973 27.5217 56.0802 27.9133 55.8459 28.1906C55.6117 28.4679 55.304 28.6326 54.9264 28.6846V28.7331C55.3372 28.7782 55.6676 28.9185 55.9193 29.1542C56.1711 29.3899 56.2952 29.7348 56.2952 30.1872V30.9827C56.2952 31.3709 56.3214 31.6655 56.3739 31.8648C56.3809 31.8839 56.3774 31.8995 56.3634 31.9133" fill="#011C35"/>
<path id="Vector_7" d="M64.0551 25.948V28.0329H67.9185C67.9517 28.0329 67.9674 28.0485 67.9674 28.0814V28.8284C67.9674 28.8613 67.9517 28.8769 67.9185 28.8769H64.0551V31.0884H68.1143C68.1475 31.0884 68.1632 31.1057 68.1632 31.1369V31.8839C68.1632 31.9168 68.1475 31.9324 68.1143 31.9324H63.0272C62.994 31.9324 62.9783 31.9168 62.9783 31.8839V25.1542C62.9783 25.1213 62.994 25.1057 63.0272 25.1057H68.1143C68.1475 25.1057 68.1632 25.1213 68.1632 25.1542V25.8821C68.1632 25.9272 68.1475 25.9497 68.1143 25.9497H64.0551V25.948Z" fill="#011C35"/>
<path id="Vector_8" d="M86.94 30.5026C87.3543 30.0728 87.5606 29.435 87.5606 28.5875V28.4506C87.5606 27.6031 87.3543 26.9636 86.94 26.5303C86.5257 26.097 85.9593 25.8804 85.2425 25.8804C84.5258 25.8804 83.9769 26.0988 83.5608 26.5355C83.143 26.9723 82.935 27.61 82.935 28.4506V28.5875C82.935 29.4281 83.143 30.0641 83.5608 30.4974C83.9786 30.9307 84.5398 31.1473 85.2425 31.1473C85.9453 31.1473 86.5257 30.9324 86.94 30.5026ZM82.7777 31.1716C82.1641 30.6187 81.8582 29.7695 81.8582 28.6256V28.4021C81.8582 27.2651 82.1641 26.4194 82.7777 25.8665C83.3913 25.3137 84.2129 25.0364 85.2425 25.0364C86.2722 25.0364 87.12 25.3119 87.7266 25.8613C88.3332 26.4107 88.6357 27.2582 88.6357 28.4021V28.6256C88.6357 29.7764 88.3332 30.6274 87.7266 31.1768C87.12 31.7261 86.2914 32 85.2425 32C84.1937 32 83.3895 31.7227 82.7777 31.1716Z" fill="#011C35"/>
<path id="Vector_9" d="M95.338 31.8839V25.1542C95.338 25.1213 95.3538 25.1057 95.387 25.1057H96.7068C96.726 25.1057 96.74 25.1161 96.7453 25.1352L100.336 30.5459H100.404C100.359 30.1525 100.336 29.6048 100.336 28.9081V25.156C100.336 25.123 100.352 25.1074 100.385 25.1074H101.364C101.397 25.1074 101.413 25.123 101.413 25.156V31.8856C101.413 31.9185 101.397 31.9341 101.364 31.9341H100.063C100.044 31.9341 100.028 31.9255 100.014 31.9047L96.4044 26.4731H96.3362C96.3886 26.8284 96.4149 27.331 96.4149 27.9757V31.8839C96.4149 31.9168 96.3991 31.9324 96.3659 31.9324H95.3887C95.3555 31.9324 95.3398 31.9168 95.3398 31.8839" fill="#011C35"/>
<path id="Vector_10" d="M120.73 29.8769C120.73 29.4835 120.621 29.2166 120.403 29.0814C120.184 28.9463 119.824 28.8769 119.322 28.8769H116.77V31.0884H119.205C119.74 31.0884 120.128 31.0069 120.369 30.8457C120.611 30.6846 120.731 30.4263 120.731 30.0693V29.8752L120.73 29.8769ZM120.476 26.3276C120.371 26.1854 120.21 26.0866 119.992 26.0312C119.773 25.9757 119.478 25.948 119.107 25.948H116.77V28.0329H119.224C119.726 28.0329 120.086 27.9653 120.305 27.8284C120.523 27.6932 120.633 27.4333 120.633 27.052V26.9359C120.633 26.6707 120.581 26.4662 120.476 26.3241M121.431 28.8925C121.682 29.1282 121.806 29.4801 121.806 29.9445V30.2253C121.806 30.8197 121.598 31.253 121.186 31.5251C120.772 31.7972 120.135 31.9324 119.273 31.9324H115.742C115.709 31.9324 115.693 31.9168 115.693 31.8839V25.1542C115.693 25.1213 115.709 25.1057 115.742 25.1057H119.214C119.801 25.1057 120.275 25.1542 120.637 25.2513C120.999 25.3483 121.268 25.5147 121.445 25.7504C121.621 25.9861 121.709 26.3085 121.709 26.7158V26.9203C121.709 27.3726 121.591 27.7227 121.357 27.9671C121.123 28.2132 120.815 28.3622 120.438 28.4125V28.461C120.848 28.513 121.179 28.6568 121.431 28.8925Z" fill="#011C35"/>
<path id="Vector_11" d="M133.138 30.5026C133.552 30.0728 133.758 29.435 133.758 28.5875V28.4506C133.758 27.6031 133.55 26.9636 133.138 26.5303C132.724 26.097 132.157 25.8804 131.44 25.8804C130.724 25.8804 130.175 26.0988 129.759 26.5355C129.341 26.9723 129.133 27.61 129.133 28.4506V28.5875C129.133 29.4281 129.341 30.0641 129.759 30.4974C130.177 30.9307 130.738 31.1473 131.44 31.1473C132.143 31.1473 132.724 30.9324 133.138 30.5026ZM128.976 31.1716C128.362 30.6187 128.056 29.7695 128.056 28.6256V28.4021C128.056 27.2651 128.362 26.4194 128.976 25.8665C129.589 25.3137 130.411 25.0364 131.44 25.0364C132.47 25.0364 133.318 25.3119 133.925 25.8613C134.531 26.4107 134.834 27.2582 134.834 28.4021V28.6256C134.834 29.7764 134.531 30.6274 133.925 31.1768C133.318 31.7261 132.489 32 131.44 32C130.392 32 129.587 31.7227 128.976 31.1716Z" fill="#011C35"/>
<path id="Vector_12" d="M145.801 29.4107L144.726 26.6863C144.569 26.2461 144.478 25.9688 144.452 25.8527H144.128C144.083 26.0277 143.992 26.305 143.854 26.6863L142.777 29.4107H145.8H145.801ZM147.904 31.9133C147.897 31.9272 147.889 31.9324 147.875 31.9324H146.847C146.82 31.9324 146.801 31.9203 146.787 31.8943L146.142 30.2548H142.434L141.789 31.8943C141.777 31.9203 141.756 31.9324 141.73 31.9324H140.702C140.688 31.9324 140.678 31.9255 140.667 31.9133C140.657 31.8995 140.655 31.8873 140.662 31.8752L143.352 25.1542C143.366 25.1213 143.385 25.1057 143.412 25.1057H145.172C145.198 25.1057 145.217 25.1213 145.23 25.1542L147.901 31.8752C147.908 31.8891 147.908 31.9012 147.901 31.9133" fill="#011C35"/>
<path id="Vector_13" d="M158.58 28.0537C158.811 27.8925 158.928 27.6048 158.928 27.1906V27.0745C158.928 26.6551 158.806 26.3622 158.561 26.1976C158.316 26.0329 157.916 25.9497 157.362 25.9497H155.063V28.2964H157.479C157.981 28.2964 158.348 28.2149 158.578 28.0537M160.169 31.9133C160.157 31.9272 160.143 31.9324 160.131 31.9324H159.143C159.11 31.9324 159.091 31.9203 159.084 31.8943C159.045 31.7903 159.024 31.5494 159.024 31.1664V30.3414C159.024 29.8752 158.895 29.5598 158.638 29.3917C158.381 29.2236 157.968 29.1404 157.4 29.1404H155.063V31.8839C155.063 31.9168 155.047 31.9324 155.014 31.9324H154.037C154.004 31.9324 153.988 31.9168 153.988 31.8839V25.1542C153.988 25.1213 154.004 25.1057 154.037 25.1057H157.509C158.383 25.1057 159.015 25.2357 159.411 25.4939C159.806 25.7522 160.001 26.1924 160.001 26.8128V27.0173C160.001 27.5217 159.884 27.9133 159.65 28.1906C159.416 28.4679 159.108 28.6326 158.73 28.6846V28.7331C159.141 28.7782 159.472 28.9185 159.723 29.1542C159.975 29.3899 160.099 29.7348 160.099 30.1872V30.9827C160.099 31.3709 160.125 31.6655 160.178 31.8648C160.185 31.8839 160.181 31.8995 160.167 31.9133" fill="#011C35"/>
<path id="Vector_14" d="M172.065 28.3725C172.065 27.5701 171.873 26.967 171.488 26.5597C171.104 26.1524 170.562 25.9479 169.864 25.9479H167.859V31.0883H169.864C170.562 31.0883 171.104 30.8855 171.488 30.4765C171.873 30.0692 172.065 29.4644 172.065 28.6637V28.3725ZM172.275 25.8855C172.852 26.4054 173.14 27.2183 173.14 28.324V28.7122C173.14 29.811 172.85 30.6221 172.27 31.1455C171.689 31.6689 170.887 31.9306 169.864 31.9306H166.831C166.798 31.9306 166.782 31.915 166.782 31.882V25.1524C166.782 25.1195 166.798 25.1039 166.831 25.1039H169.864C170.894 25.1039 171.698 25.3638 172.275 25.8855Z" fill="#011C35"/>
</g>
</g>
</svg>
