<?xml version="1.0" encoding="iso-8859-1"?>
<!DOCTYPE svg PUBLIC "-//W3C//DTD SVG 1.0//EN" "http://www.w3.org/TR/2001/REC-SVG-20010904/DTD/svg10.dtd">
<!-- Creator: CorelDRAW -->
<svg xmlns="http://www.w3.org/2000/svg" xmlns:odm="http://product.corel.com/CGS/11/cddns/" xml:space="preserve" width="1961px" height="1961px" style="shape-rendering:geometricPrecision; text-rendering:geometricPrecision; image-rendering:optimizeQuality; fill-rule:evenodd"
     viewBox="0 0 1962 1962">
 <defs>
  <style type="text/css">
   <![CDATA[
    .str0 {stroke:#0093DD;stroke-width:67}
    .fil1 {fill:none}
    .fil4 {fill:#0093DD}
    .fil2 {fill:#6699FF}
    .fil0 {fill:#FEFEFE}
    .fil3 {fill:#FFFFFF}
   ]]>
  </style>
 </defs>
 <g id="Ebene 1">
  <g>
   <circle class="fil0 str0" cx="981" cy="981" r="915"/>
   <circle class="fil1 str0" cx="981" cy="981" r="569"/>
   <path class="fil2" d="M806 931c4,0 8,0 13,0 0,-2 0,-3 0,-4 -5,0 -9,0 -13,0 -2,-2 -3,-3 -4,-5 0,-1 0,-3 0,-4 -4,0 -9,0 -13,0 0,1 0,3 0,4 -63,-19 -89,-17 -146,19 -7,1 -13,1 -20,2 0,-6 0,-11 0,-16 -25,-6 -10,-52 -15,-75 5,-6 5,-6 15,-9 -2,-3 -3,-6 -4,-9 4,-2 8,-3 12,-3 -1,-6 -2,-12 -3,-18 5,-1 10,-2 15,-3 1,-3 2,-7 3,-10 23,-4 49,-17 72,-11 0,-3 0,-6 0,-8 6,0 11,0 17,0 -1,-7 -3,-14 -4,-21 4,-1 9,-3 13,-4 1,-3 3,-6 4,-9 8,0 15,1 23,1 0,-9 4,-22 4,-67 -4,-5 -9,-9 -13,-13 -2,1 -3,2 -5,3 -3,-2 -6,-4 -8,-6 6,-63 -90,-110 -1,-118 0,3 1,6 2,8 1,-1 2,-3 4,-4 17,16 23,12 44,19 -2,1 -3,3 -5,4 24,3 47,6 71,9 46,-9 50,-13 76,-18 14,-43 14,-43 15,-56 17,-9 50,-16 64,0 1,19 2,39 4,59 37,6 37,6 41,10 -1,2 -3,3 -4,5 8,4 15,8 23,12 14,-6 28,-3 44,-2 0,-3 0,-6 0,-8 15,-2 30,-3 46,-4 -3,-12 -4,-17 -13,-24 36,-12 69,-4 101,10 1,3 2,6 3,9 -26,2 -32,9 -49,30 4,3 8,7 12,10 -3,1 -6,1 -8,2 0,11 0,22 0,33 -30,11 -38,12 -42,42 -19,-6 -19,-6 -51,-7 -1,-5 -2,-9 -3,-14 -9,0 -17,0 -25,0 0,-3 0,-5 0,-8 28,2 36,-2 61,-16 -2,-4 -4,-7 -6,-10 -18,-1 -36,-10 -51,-10 1,1 3,3 4,4 -2,2 -4,4 -5,6 -3,-8 -13,-11 -16,-20 -4,-1 -9,-1 -13,-1 -2,3 -3,6 -3,9 -7,0 -14,0 -21,0 -1,3 -3,6 -3,9 -9,1 -18,3 -27,4 0,-4 0,-9 0,-13 6,-2 12,-5 18,-7 1,-9 1,-9 -5,-30 -8,0 -17,0 -25,0 2,12 6,16 5,26 -9,1 -17,2 -26,3 -1,-7 -2,-15 -3,-22 -43,-5 -43,-5 -51,-3 0,5 0,11 0,17 -8,0 -17,0 -25,0 0,-9 0,-9 -4,-9 0,3 0,6 0,9 -17,2 -17,3 -27,16 -5,-4 -5,-4 -7,-25 -4,1 -7,2 -11,3 1,6 2,12 3,18 -4,0 -8,0 -12,0 0,6 0,11 0,17 -14,2 -21,6 -25,21 4,0 8,0 12,0 0,4 1,9 1,13 -11,1 -11,1 -17,5 12,3 12,3 12,7 -3,0 -6,0 -8,0 -1,4 -3,9 -4,13 -11,1 -35,4 -18,21 122,-5 236,-5 359,3 0,-8 0,-17 0,-25 10,3 11,5 16,14 19,0 25,-4 43,-14 0,-3 0,-5 0,-8 2,0 5,0 8,0 2,-13 2,-13 11,-30 6,-1 12,-1 18,-1 17,16 13,71 -12,81 -2,10 -3,19 -4,29 6,2 13,4 20,6 -1,2 -3,3 -4,5 5,-1 9,-1 14,-2 0,3 2,5 3,8 3,0 5,0 8,0 0,-8 0,-8 4,-8 2,8 3,16 4,24 67,-2 76,-6 89,-5 8,34 -7,65 -1,97 -3,0 -6,0 -8,0 -5,-16 -6,-25 -4,-41 -34,10 -71,14 -77,19 -1,10 -1,10 16,68 12,6 25,12 38,19 2,-2 4,-3 6,-4 -2,-2 -3,-3 -4,-5 11,-3 22,-5 33,-8 3,-6 7,-13 10,-19 5,5 9,9 14,14 -2,1 -5,2 -7,3 17,52 -33,71 -75,87 2,23 4,45 7,68 -3,1 -5,2 -7,3 12,10 26,6 41,4 1,5 2,9 3,14 -6,2 -13,4 -19,5 2,3 5,6 8,8 -1,2 -3,3 -4,5 7,7 24,3 34,3 1,8 2,16 3,24 -4,0 -4,0 -4,-8 -3,0 -5,1 -7,3 1,3 2,6 3,9 3,0 5,0 8,0 0,4 0,8 0,12 -4,0 -8,0 -12,0 0,3 0,6 0,9 -26,6 -41,4 -68,-1 -5,38 -5,38 -5,72 10,20 13,28 11,51 -23,6 -43,4 -67,3 -13,42 8,69 -42,75 0,-4 0,-8 0,-13 -3,0 -6,0 -8,0 0,-3 0,-5 0,-8 -10,-3 -20,-5 -29,-8 0,21 0,41 0,62 -15,-3 -28,-5 -42,-8 0,-3 0,-6 0,-8 3,0 5,0 8,0 -8,-21 -8,-21 -12,-21 0,4 0,8 0,12 -5,0 -9,0 -13,0 -1,-4 -2,-9 -3,-13 -9,-5 -9,-5 -23,-5 -2,8 -5,15 -7,23 -3,0 -6,0 -9,0 0,9 0,19 0,29 -7,-1 -14,-3 -22,-4 -5,-9 -9,-38 -13,-42 -15,23 -14,48 -14,75 -27,-8 -44,-23 -38,-54 -8,0 -8,0 -8,-4 2,0 5,0 8,0 0,-6 1,-12 1,-18 -8,0 -15,0 -22,1 0,-4 0,-9 0,-13 -1,0 -13,12 -13,13 9,0 9,0 9,4 -3,0 -6,0 -9,0 0,3 0,5 0,8 -4,1 -9,2 -13,3 -4,10 -8,21 -12,31 -6,0 -13,1 -20,2 1,-2 2,-3 4,-4 -10,-10 -10,-10 -13,-19 -41,4 -82,12 -125,8 -1,4 -1,9 -2,13 -4,-9 -9,-18 -13,-27 -8,-1 -15,-1 -22,-2 0,-2 0,-3 0,-5 4,0 8,0 12,0 -1,-11 -3,-22 -4,-33 24,1 96,5 72,-39 -15,0 -29,0 -43,-1 -17,10 -35,30 -54,30 -3,-3 -5,-6 -8,-9 1,-1 3,-3 4,-4 -3,-1 -7,-2 -10,-3 -1,-4 -2,-8 -3,-12 6,-3 11,-7 17,-10 -5,0 -9,1 -14,1 -1,-2 -2,-5 -3,-7 -3,0 -5,0 -8,0 0,3 0,5 0,8 -21,-5 -21,-32 -16,-50 2,0 5,0 8,0 1,-23 6,-32 29,-37 0,-5 0,-9 0,-13 4,0 8,0 12,0 0,-3 0,-6 0,-8 17,2 25,-7 42,-4 1,-4 2,-7 3,-10 26,0 47,-10 72,-7 1,-21 3,-42 4,-63 3,0 6,0 9,0 0,-3 0,-5 0,-8 5,0 10,0 16,0 17,31 66,33 93,14 9,-18 9,-18 16,-47 -3,0 -6,0 -9,0 -1,-4 -2,-7 -3,-10 -65,-19 -134,-5 -201,-5 -61,-31 -69,-53 -133,-29 -25,0 -104,10 -113,-23 -3,-1 -6,-2 -9,-3 -1,-3 -2,-6 -3,-9 -3,0 -6,0 -9,0 -1,-17 -3,-34 -4,-51 9,3 17,6 25,9 0,4 0,8 0,12 6,-2 13,-4 19,-6 38,21 57,21 102,19 1,-4 2,-8 3,-12 88,-3 175,-11 264,-11 3,1 5,3 8,4 -1,1 -3,3 -4,4 7,1 14,2 21,2 0,-1 0,-3 0,-4 -4,0 -9,0 -13,0 0,-1 0,-3 0,-4 31,5 56,13 85,24 -1,-5 -1,-10 -1,-16 -6,0 -12,0 -17,0 -2,-12 -10,-23 -12,-41 -8,0 -15,1 -21,2 1,1 2,2 4,4 -17,0 -21,-4 -113,-15 0,3 0,6 0,9 -11,0 -22,0 -33,0z"/>
   <path class="fil3" d="M768 1381c0,-3 0,-6 0,-9 9,0 17,0 25,0 0,2 0,3 0,5 -8,1 -16,2 -25,4z"/>
   <path class="fil3" d="M881 1381c0,-4 0,-9 0,-13 8,0 16,0 25,0 0,4 0,9 0,13 -9,0 -17,0 -25,0z"/>
   <path class="fil3" d="M1148 1377c2,-5 4,-9 6,-13 0,8 0,8 -6,13z"/>
   <path class="fil3" d="M918 1364c-6,-4 -13,-7 -20,-10 28,-15 6,-39 44,-39 -1,-4 -2,-9 -3,-13 12,-1 23,-2 34,-2 1,1 2,2 4,4 -6,2 -11,4 -17,6 0,4 0,8 0,12 -11,7 -17,9 -21,21 -5,2 -11,3 -16,5 -2,5 -3,10 -5,16z"/>
   <path class="fil3" d="M977 1364c-11,-17 1,-27 4,-46 3,0 5,-1 8,-2 -1,-1 -3,-3 -4,-4 8,-8 8,-8 17,-10 -2,5 -3,11 -4,16 2,0 5,0 8,0 1,3 2,5 3,7 5,-2 10,-4 15,-6 0,-6 2,-12 3,-17 1,0 3,0 4,0 0,11 0,22 0,33 -4,0 -8,0 -13,0 0,3 0,5 0,8 -2,0 -5,0 -8,0 0,6 0,11 0,17 -11,1 -22,3 -33,4z"/>
   <path class="fil3" d="M1052 1018c1,0 3,0 4,0 0,7 0,14 0,21 4,-1 8,-3 13,-4 6,8 6,8 10,29 5,-6 11,-13 17,-19 -19,-34 -9,-59 -9,-94 -1,2 -3,3 -4,5 -1,-7 -3,-14 -4,-21 1,-2 3,-3 4,-4 1,1 3,2 4,4 1,-7 2,-14 3,-21 7,1 14,2 21,3 1,44 -5,67 11,106 17,6 22,10 43,12 -3,14 2,17 10,29 0,-25 0,-25 4,-29 -8,-42 -8,-42 -6,-54 5,0 11,0 16,0 0,-10 0,-20 0,-30 -6,-1 -13,-3 -20,-4 0,-4 0,-4 8,-4 -4,-10 -9,-19 -12,-29 16,2 16,2 20,6 -1,1 -3,3 -4,4 7,10 10,15 21,19 -6,-25 -6,-25 -12,-30 7,0 14,0 20,1 1,3 2,6 3,9 5,1 9,2 14,4 3,18 5,36 8,54 10,2 20,5 29,8 1,3 2,6 3,9 6,2 12,4 18,6 -4,4 -4,4 -16,6 4,20 7,46 29,54 2,10 4,19 6,29 5,1 10,3 15,4 -2,1 -4,2 -6,3 1,6 1,12 2,18 -5,0 -9,0 -13,0 0,-3 0,-5 0,-8 -10,-4 -20,-9 -29,-13 -1,-6 -3,-12 -3,-17 -4,-2 -7,-3 -10,-3 4,-22 -17,-58 -24,-81 -8,-2 -17,-5 -26,-7 0,6 0,12 -1,18 3,1 6,2 10,3 1,8 2,16 4,25 17,4 17,4 17,8 -3,0 -6,0 -9,0 0,10 0,19 0,29 6,1 13,2 20,3 -1,14 -1,14 5,43 3,-1 6,-2 9,-3 0,9 0,19 -1,28 5,1 9,2 14,3 9,18 9,18 8,27 -3,0 -6,1 -9,1 -13,-13 -18,-42 -33,-47 0,-5 0,-9 0,-13 -3,0 -6,0 -9,0 0,-7 0,-14 0,-21 -3,0 -5,0 -8,0 -1,-7 -2,-15 -3,-22 -5,-1 -9,-2 -14,-3 2,38 2,38 9,59 6,0 13,0 21,0 8,44 10,84 12,129 3,0 5,0 8,0 -1,8 -2,17 -3,26 -6,1 -12,2 -17,3 -2,-20 -3,-40 -4,-60 -4,-1 -9,-2 -13,-3 1,-13 4,-35 -7,-46 -1,4 -3,7 -5,10 -3,0 -7,0 -10,0 -16,-30 -20,-34 -53,-30 0,1 0,2 0,4 5,0 11,0 17,0 6,58 -9,126 -37,176 2,1 5,2 7,3 -3,12 -10,16 -22,14 -1,-32 -18,-38 -19,-68 2,0 5,0 8,0 0,-10 0,-20 0,-29 3,-1 7,-3 11,-4 -1,-25 -1,-25 7,-81 2,-1 4,-2 7,-3 0,-3 0,-5 0,-8 -8,-4 -17,-7 -25,-11 3,-5 5,-9 8,-14 8,0 17,0 25,0 0,-3 0,-6 0,-8 -3,0 -5,0 -8,0 -1,-25 2,-50 -10,-71 -17,16 -26,14 -48,16 0,3 0,6 0,9 -5,0 -9,0 -14,1 -1,-22 -2,-43 -3,-64z"/>
   <path class="fil3" d="M864 1335c3,-5 3,-5 13,-8 0,2 0,5 0,8 -4,0 -9,0 -13,0z"/>
   <path class="fil3" d="M889 1322c-1,-4 -2,-9 -3,-13 5,-2 10,-4 15,-6 -2,-4 -4,-7 -5,-10 -6,5 -6,5 -29,7 -1,-5 -2,-10 -3,-15 21,-2 21,-2 54,-12 0,-3 0,-6 0,-9 13,-1 25,-3 38,-4 0,3 0,5 0,8 -4,0 -8,0 -13,0 0,6 0,11 0,17 -10,5 -14,6 -26,5 -1,7 -2,13 -3,20 -4,0 -8,0 -12,0 0,4 0,8 0,12 -4,0 -8,0 -13,0z"/>
   <path class="fil3" d="M744 1273c-15,10 -30,20 -44,31 -3,-2 -5,-4 -8,-6 0,-5 0,-10 0,-14 16,-8 33,-16 52,-11z"/>
   <path class="fil3" d="M1048 1289c0,-3 0,-5 0,-8 3,0 5,0 8,0 1,-11 3,-23 4,-34 3,0 6,0 9,0 0,-7 1,-14 3,-22 6,-1 12,-3 18,-4 2,4 4,8 6,12 -21,26 -9,50 -48,56z"/>
   <path class="fil2" d="M1127 1281c-2,-14 0,-17 6,-29 4,6 4,6 2,29 -3,0 -5,0 -8,0z"/>
   <path class="fil3" d="M1202 1281c-1,-5 -2,-9 -3,-14 7,-7 6,-10 6,-21 3,-1 6,-2 9,-3 1,9 1,18 1,26 -9,3 -9,12 -13,12z"/>
   <path class="fil3" d="M744 1273c5,-1 10,-2 16,-3 -4,5 -4,5 -16,3z"/>
   <path class="fil3" d="M852 1273c1,-4 2,-7 3,-10 11,-1 23,-2 34,-3 0,3 0,5 0,8 -12,2 -25,3 -37,5z"/>
   <path class="fil3" d="M898 1268c-1,-4 -1,-7 -1,-11 5,0 11,0 17,1 -5,3 -11,7 -16,10z"/>
   <path class="fil3" d="M819 1260c0,-6 0,-11 0,-17 -3,0 -6,0 -9,0 0,-3 0,-5 0,-8 7,-1 15,-2 22,-3 1,-4 2,-7 3,-10 15,2 20,4 31,-6 4,1 7,1 11,2 0,-3 0,-5 0,-8 2,-1 5,-2 8,-2 -7,-4 -14,-9 -21,-13 47,-28 110,-13 164,-26 1,-3 2,-6 3,-9 7,0 14,1 22,1 0,-8 1,-15 1,-22 15,8 15,8 15,13 -3,0 -6,0 -9,0 1,6 3,13 4,20 -18,4 -26,15 -29,34 25,-4 20,-35 50,-32 8,-3 17,-7 25,-10 0,4 0,8 0,12 -15,8 -17,15 -25,30 -4,-1 -9,-1 -13,-2 -2,3 -3,7 -3,10 -4,1 -7,2 -10,3 -2,5 -4,11 -6,17 -4,0 -7,0 -11,0 -1,3 -2,6 -3,9 -15,-1 -30,-3 -46,-4 -7,-15 -7,-19 0,-33 3,0 6,0 9,0 0,-3 0,-6 0,-8 -38,-3 -58,19 -92,24 0,3 0,6 0,9 -9,-1 -17,-1 -26,-1 -3,13 -3,13 -7,13 0,-3 0,-5 0,-8 -6,-1 -11,-3 -17,-4 0,3 0,5 0,8 -29,2 -29,2 -35,7 -2,14 -2,14 -6,14z"/>
   <path class="fil3" d="M1023 1256c-2,-2 -3,-4 -4,-6 3,-1 5,-2 8,-3 -2,3 -3,6 -4,9z"/>
   <path class="fil3" d="M727 1247c0,-2 0,-5 0,-8 4,1 8,1 12,2 -4,2 -8,4 -12,6z"/>
   <path class="fil3" d="M785 1214c0,-3 0,-5 0,-8 3,0 6,0 8,0 0,2 0,5 0,8 -2,0 -5,0 -8,0z"/>
   <path class="fil3" d="M806 1206c0,-4 0,-4 17,-8 0,2 0,5 0,8 -6,0 -12,0 -17,0z"/>
   <path class="fil3" d="M910 1172c0,-2 0,-5 0,-8 18,1 36,3 54,4 0,1 0,3 0,4 -18,0 -36,0 -54,0z"/>
   <path class="fil3" d="M1077 1127c-3,-2 -6,-5 -8,-7 5,-2 11,-4 16,-6 0,4 0,8 0,13 -3,0 -5,0 -8,0z"/>
   <path class="fil2" d="M1194 1127c-1,-5 -2,-9 -2,-13 4,4 4,4 2,13z"/>
   <path class="fil2" d="M1381 1118c-1,-2 -2,-3 -3,-5 2,-1 5,-2 7,-3 -1,3 -3,5 -4,8z"/>
   <path class="fil3" d="M1018 1101c0,-4 0,-8 0,-12 6,0 12,-1 18,-1 0,3 0,7 0,10 -6,1 -12,2 -18,3z"/>
   <path class="fil2" d="M1177 1093c2,-4 4,-8 6,-12 1,4 1,8 2,12 -3,0 -5,0 -8,0z"/>
   <path class="fil2" d="M1173 1077c0,-3 0,-6 0,-9 4,0 8,0 12,0 0,3 0,6 0,9 -4,0 -8,0 -12,0z"/>
   <path class="fil2" d="M1210 1060c-3,-5 -7,-9 -11,-14 5,-1 10,-2 15,-3 2,6 3,11 5,17 -3,0 -6,0 -9,0z"/>
   <path class="fil3" d="M956 1047c0,-2 0,-5 0,-8 7,0 14,0 21,0 0,3 0,5 0,8 -7,0 -14,0 -21,0z"/>
   <path class="fil3" d="M1069 1035c0,-4 0,-9 0,-13 2,0 5,0 8,0 -3,4 -6,9 -8,13z"/>
   <path class="fil3" d="M831 1031c0,-9 0,-17 0,-25 -39,0 -78,1 -117,2 10,-3 20,-5 30,-8 1,-2 3,-4 4,-7 62,-11 114,-6 175,-6 -3,1 -6,3 -9,4 9,8 9,8 17,11 0,-3 0,-6 0,-9 3,0 5,0 8,0 0,4 0,9 0,13 12,0 23,0 35,1 1,6 2,13 3,19 -36,-10 -75,-10 -113,-12 0,5 0,11 0,17 -4,0 -8,0 -12,0 1,-6 3,-12 4,-17 -4,0 -8,0 -13,0 2,5 3,11 5,17 -6,0 -12,0 -17,0z"/>
   <path class="fil3" d="M1052 1018c-1,0 -3,0 -4,0 0,-4 0,-8 0,-12 1,0 3,0 4,0 0,4 0,8 0,12z"/>
   <path class="fil3" d="M1160 989c-2,-11 -2,-11 2,-17 3,6 5,11 7,17 -3,0 -6,0 -9,0z"/>
   <path class="fil3" d="M1331 989c0,-4 0,-8 0,-13 1,0 3,0 4,0 0,5 0,9 0,13 -1,0 -2,0 -4,0z"/>
   <path class="fil3" d="M1006 981c-1,-4 -1,-8 -1,-12 3,2 6,3 10,5 -4,2 -6,4 -9,7z"/>
   <path class="fil3" d="M1048 968c3,2 5,4 8,6 -4,4 -4,4 -11,3 0,-3 2,-6 3,-9z"/>
   <path class="fil3" d="M1048 968c-3,0 -6,0 -9,0 0,-3 0,-5 0,-8 -5,-2 -11,-3 -16,-4 0,-5 0,-9 0,-13 -5,-2 -9,-5 -14,-7 -5,-16 -26,-21 -40,-28 12,-2 24,-5 37,-7 14,17 21,33 42,38 0,9 0,19 0,29z"/>
   <path class="fil2" d="M1219 968c-7,-8 -7,-8 -9,-21 4,0 9,0 13,0 2,11 1,12 -4,21z"/>
   <path class="fil2" d="M652 964c-1,-2 -3,-4 -4,-5 7,-1 14,-1 21,-1 -5,4 -5,4 -17,6z"/>
   <path class="fil3" d="M1256 939c-1,-4 -3,-9 -4,-12 -3,0 -6,0 -8,0 -2,-11 -2,-11 2,-17 0,2 1,5 2,8 3,0 5,0 8,0 0,7 0,14 0,21z"/>
   <path class="fil2" d="M789 922c4,0 9,0 13,0 1,2 2,3 4,5 0,1 0,2 0,4 -8,0 -17,0 -25,0 0,-4 0,-4 8,-9z"/>
   <path class="fil3" d="M806 931c0,-2 0,-3 0,-4 4,0 8,0 13,0 0,1 0,2 0,4 -5,0 -9,0 -13,0z"/>
   <path class="fil3" d="M789 922c0,-1 0,-3 0,-4 4,0 9,0 13,0 0,1 0,3 0,4 -4,0 -9,0 -13,0z"/>
   <path class="fil3" d="M1094 906c-17,-15 -17,-15 -25,-30 2,0 5,0 8,0 -2,-12 -4,-25 -6,-37 27,15 24,38 23,67z"/>
   <path class="fil3" d="M943 901c-3,-5 -3,-5 -25,-18 12,-1 23,-2 34,-2 0,-3 0,-6 0,-9 5,0 11,0 17,0 0,10 0,19 0,29 -9,0 -17,0 -26,0z"/>
   <path class="fil3" d="M894 847c-8,-10 -7,-16 -7,-29 5,-5 5,-5 15,-8 0,-4 0,-9 0,-13 3,-1 6,-2 9,-3 1,-5 2,-9 3,-13 -20,1 -33,6 -54,4 0,4 0,8 0,12 -7,0 -14,0 -21,0 -2,13 -10,25 -12,42 -5,0 -9,0 -13,0 0,-3 0,-6 0,-8 -3,0 -5,0 -8,0 0,-5 0,-9 0,-13 -4,0 -8,0 -13,0 0,-4 0,-8 0,-12 4,-2 8,-3 12,-4 -1,-18 6,-25 17,-39 42,-1 51,-5 60,-4 1,3 2,6 3,9 31,0 61,0 92,0 0,7 0,14 0,21 21,-3 42,-5 63,-7 0,7 0,13 0,20 -16,2 -33,2 -51,4 -1,3 -2,6 -3,9 -17,5 -17,5 -59,7 0,3 0,6 0,9 -8,2 -15,4 -22,7 -1,3 -2,6 -3,9 -3,0 -6,0 -8,0z"/>
   <path class="fil3" d="M1110 814c2,-3 4,-6 7,-8 0,2 1,5 2,8 -3,0 -6,0 -9,0z"/>
   <path class="fil3" d="M1052 806c0,-9 0,-17 0,-25 3,0 5,0 8,0 -1,7 -1,14 -2,20 -2,2 -4,3 -6,5z"/>
   <path class="fil3" d="M1181 801c1,-2 2,-5 3,-7 10,3 10,3 10,7 -5,0 -9,0 -13,0z"/>
   <path class="fil3" d="M1210 801c3,-7 5,-14 7,-21 3,-2 7,-3 10,-3 0,5 0,10 0,16 3,0 5,0 8,0 0,3 0,5 0,8 -8,0 -16,0 -25,0z"/>
   <path class="fil3" d="M785 789c0,-4 0,-9 0,-12 2,0 5,1 7,3 -3,9 -3,9 -7,9z"/>
   <path class="fil3" d="M768 777c-2,-4 -5,-7 -7,-10 3,0 5,0 8,0 0,3 0,6 -1,10z"/>
   <path class="fil3" d="M1102 772c-5,-14 2,-23 17,-23 -3,3 -6,6 -9,9 4,1 8,3 12,5 -2,3 -2,6 -3,9 -6,0 -12,0 -17,0z"/>
   <path class="fil3" d="M1010 747c3,-5 3,-5 13,-6 -5,2 -9,4 -13,6z"/>
   <path class="fil3" d="M1027 747c0,-3 0,-5 0,-8 3,0 5,0 8,0 0,3 0,5 0,8 -2,0 -5,0 -8,0z"/>
   <path class="fil2" d="M843 685c3,-6 3,-6 13,-9 0,3 0,6 0,9 -4,0 -8,0 -13,0z"/>
   <path class="fil3" d="M1160 672c2,-12 2,-12 7,-16 1,4 4,8 6,12 -5,1 -9,3 -13,4z"/>
   <path class="fil2" d="M910 668c-16,-10 -33,-14 -37,-19 2,-1 4,-3 6,-4 31,9 31,9 44,17 -5,2 -9,4 -13,6z"/>
   <path class="fil2" d="M939 660c2,-6 3,-12 4,-17 -4,0 -8,0 -12,0 0,-2 0,-3 0,-4 26,-7 39,-15 67,-15 10,11 4,22 1,35 -4,-2 -7,-2 -10,-3 0,-3 0,-6 0,-9 -16,-10 -16,-10 -25,-10 -10,14 -10,14 -12,23 -4,0 -9,0 -13,0z"/>
   <path class="fil2" d="M1052 660c0,-2 0,-3 0,-4 11,-3 22,-6 33,-9 0,4 0,9 0,13 -11,0 -22,0 -33,0z"/>
   <path class="fil3" d="M969 585c-2,-19 -3,-37 -5,-55 17,0 34,0 51,0 0,2 0,3 0,5 -5,0 -9,0 -13,0 4,14 6,22 4,37 -3,0 -6,0 -8,0 0,4 0,9 0,13 -10,0 -20,0 -29,0z"/>
   <path class="fil2" d="M1135 576c1,-2 2,-5 3,-7 10,3 10,3 10,7 -4,0 -9,0 -13,0z"/>
   <path class="fil4" d="M435 649l-145 -117 24 -29 64 52 -16 -111 31 -39 13 100 134 14 -31 38 -99 -16 5 44 43 35 -23 29z"/>
   <path class="fil4" d="M496 435c-10,-16 -17,-30 -20,-44 -2,-10 -2,-20 0,-31 1,-10 5,-19 10,-27 6,-11 16,-21 28,-29 23,-16 45,-21 68,-17 24,4 44,19 61,44 17,24 24,48 21,71 -4,24 -17,43 -39,59 -23,15 -46,21 -69,17 -23,-5 -43,-19 -60,-43zm31 -23c12,17 25,27 40,30 14,4 27,1 39,-7 12,-9 19,-20 21,-35 2,-14 -4,-30 -16,-48 -12,-17 -25,-27 -39,-31 -13,-3 -26,0 -39,9 -13,9 -20,20 -22,34 -1,14 4,30 16,48z"/>
   <path class="fil4" d="M820 298l38 2c0,21 -5,38 -15,51 -10,12 -24,21 -44,27 -23,6 -45,3 -65,-9 -20,-12 -33,-32 -41,-61 -8,-29 -6,-55 5,-75 11,-21 29,-35 54,-41 22,-6 41,-4 59,5 10,5 19,15 27,28l-34 18c-4,-9 -11,-15 -19,-18 -8,-4 -17,-4 -27,-2 -13,4 -22,11 -28,23 -6,12 -6,28 0,50 6,22 14,37 25,45 11,7 23,9 36,6 9,-3 17,-8 22,-16 5,-8 8,-19 7,-33z"/>
   <path class="fil4" d="M906 346l4 -186 37 1 -1 82 77 -81 50 1 -71 71 72 114 -49 0 -49 -88 -31 30 -1 56 -38 0z"/>
   <path class="fil4" d="M1140 176l36 10 -26 97c-4,15 -6,25 -6,30 -1,8 1,15 6,21 5,6 12,10 22,13 10,2 19,2 25,0 6,-3 11,-7 14,-13 2,-6 6,-16 9,-30l27 -99 36 9 -25 94c-6,22 -11,37 -15,45 -5,9 -10,15 -17,20 -7,4 -15,7 -25,9 -10,1 -22,0 -36,-4 -17,-5 -30,-10 -37,-16 -8,-7 -14,-14 -17,-21 -4,-8 -5,-16 -5,-23 0,-11 3,-26 9,-46l25 -96z"/>
   <path class="fil4" d="M1271 413l107 -152 46 32 -45 123 99 -85 46 33 -106 151 -28 -19 83 -120 -114 98 -29 -20 54 -141 -84 120 -29 -20z"/>
   <path class="fil4" d="M1484 501l25 26c-8,10 -12,19 -12,28 -1,8 3,17 10,26 8,9 15,15 23,16 8,2 15,1 20,-4 3,-2 5,-6 6,-10 1,-4 0,-9 -2,-15 -2,-5 -6,-14 -13,-29 -8,-18 -13,-33 -12,-44 1,-15 7,-28 18,-37 8,-6 16,-9 26,-10 10,-1 19,1 29,6 10,5 19,13 28,24 15,18 22,35 21,51 0,15 -7,29 -20,40l-25 -28c7,-8 10,-15 10,-21 0,-7 -4,-14 -10,-23 -7,-8 -14,-13 -21,-15 -5,-2 -9,-1 -13,2 -4,3 -5,7 -5,12 -1,6 3,17 12,34 8,17 13,30 15,40 2,10 1,19 -2,28 -3,9 -9,17 -18,24 -9,7 -18,11 -29,12 -11,1 -22,-1 -32,-6 -10,-6 -21,-15 -31,-27 -14,-19 -22,-36 -21,-53 0,-16 8,-32 23,-47z"/>
   <path class="fil4" d="M481 1571l33 18c-5,11 -6,21 -4,30 2,9 8,16 18,23 10,7 19,10 27,9 9,-1 15,-4 18,-10 3,-4 4,-8 4,-12 -1,-4 -3,-9 -7,-14 -3,-4 -10,-12 -21,-24 -14,-16 -22,-29 -25,-40 -4,-15 -2,-29 7,-41 5,-8 12,-14 22,-18 9,-4 19,-5 30,-3 11,3 22,8 34,16 20,13 32,27 36,43 4,15 2,30 -8,45l-32 -20c4,-9 5,-17 3,-23 -2,-7 -8,-13 -17,-19 -9,-6 -17,-9 -25,-9 -5,0 -9,2 -12,6 -2,4 -3,8 -1,13 1,6 9,16 22,30 13,14 21,25 26,34 5,9 7,18 7,28 -1,9 -4,19 -11,29 -6,9 -14,16 -24,20 -11,5 -22,6 -33,4 -12,-3 -25,-9 -38,-18 -20,-13 -32,-28 -37,-44 -4,-17 -1,-34 8,-53z"/>
   <path class="fil4" d="M627 1735l22 -193 37 13 -18 132 77 -110 43 16 -14 135 72 -114 36 13 -108 162 -38 -14 13 -146 -83 120 -39 -14z"/>
   <path class="fil4" d="M839 1803l20 -188 139 15 -3 32 -102 -11 -4 42 94 10 -3 31 -95 -9 -5 51 105 11 -3 31 -143 -15z"/>
   <path class="fil4" d="M992 1627l69 -8c16,-2 28,-2 36,-1 12,2 22,6 31,14 8,7 16,17 21,28 6,11 10,26 12,44 2,15 1,29 -1,40 -3,14 -8,26 -16,36 -6,7 -14,13 -25,18 -8,4 -19,6 -33,8l-71 9 -23 -188zm42 27l15 125 28 -4c11,-1 18,-3 23,-4 6,-3 11,-6 14,-10 4,-4 6,-11 8,-19 1,-9 1,-21 -1,-35 -1,-15 -4,-26 -7,-33 -4,-8 -8,-13 -13,-17 -6,-4 -12,-6 -19,-7 -6,0 -16,0 -31,2l-17 2z"/>
   <path class="fil4" d="M1202 1782l-65 -178 132 -48 11 30 -96 35 15 39 89 -32 11 30 -90 32 18 49 99 -36 11 29 -135 50z"/>
   <path class="fil4" d="M1366 1717l-100 -160 32 -20 132 66 -67 -107 30 -19 100 161 -32 20 -130 -64 65 104 -30 19z"/>
  </g>
 </g>
 <g id="Umriss">
  <path class="fil3" d="M-1775 2913c0,-2 0,-3 0,-5 5,0 11,0 17,0 0,2 0,3 0,5 -6,0 -11,0 -17,0z"/>
 </g>
</svg>
