<svg xmlns="http://www.w3.org/2000/svg" viewBox="0 0 195.89 53.51"><title>logo-footer</title><path d="M59.9,43.25H54.19v4.08h4.87V48.4H54.19v4.89H53V42.19H59.9Z" transform="translate(-0.11 0.12)" style="fill:#fff"/><path d="M69.37,53.29H68.11l-.89-2.51H62.38l-.89,2.51H60.22l4.09-11.1h1Zm-6.63-3.54h4.13l-2.06-5.88Z" transform="translate(-0.11 0.12)" style="fill:#fff"/><path d="M77.77,43.31l-.77.77a3.44,3.44,0,0,0-2.59-1,2.06,2.06,0,0,0-2.35,2.07,1.63,1.63,0,0,0,.5,1.3,3,3,0,0,0,1.45.57l1.29.21a3.32,3.32,0,0,1,2,.79,2.78,2.78,0,0,1,.94,2.19c0,1.94-1.51,3.14-3.84,3.14a4.79,4.79,0,0,1-3.78-1.46l.79-.8a3.8,3.8,0,0,0,3,1.2c1.64,0,2.64-.74,2.64-2a1.73,1.73,0,0,0-.55-1.39,2.41,2.41,0,0,0-1.45-.55l-1.29-.18a4,4,0,0,1-2-.85,2.63,2.63,0,0,1-.86-2.09c0-1.88,1.36-3.11,3.56-3.11A4.55,4.55,0,0,1,77.77,43.31Z" transform="translate(-0.11 0.12)" style="fill:#fff"/><path d="M87.09,43.25H83.88v10H82.69v-10H79.48V42.19h7.61Z" transform="translate(-0.11 0.12)" style="fill:#fff"/><path d="M88.91,53.29H87.44V51.82h1.47Z" transform="translate(-0.11 0.12)" style="fill:#fff"/><path d="M103,43.25H97.28v4.08h4.87V48.4H97.28v4.89H96.1V42.19H103Z" transform="translate(-0.11 0.12)" style="fill:#fff"/><path d="M111.15,43.19c1,1,1.12,2,1.12,4.55s-.08,3.51-1.12,4.55a4.06,4.06,0,0,1-5.54,0c-1-1-1.11-2-1.11-4.55s.07-3.51,1.11-4.55a4.06,4.06,0,0,1,5.54,0Zm-4.68.75c-.7.71-.78,1.52-.78,3.8s.08,3.09.78,3.81a2.77,2.77,0,0,0,3.83,0c.7-.72.78-1.53.78-3.81s-.08-3.09-.78-3.8a2.74,2.74,0,0,0-3.83,0Z" transform="translate(-0.11 0.12)" style="fill:#fff"/><path d="M119.31,42.19a3,3,0,0,1,3.29,3.09,2.87,2.87,0,0,1-2.42,3l2.63,5h-1.38l-2.53-4.93h-2.67v4.93h-1.18V42.19Zm-3.08,1.06v4.07h3a2,2,0,1,0,0-4.07Z" transform="translate(-0.11 0.12)" style="fill:#fff"/><path d="M134.63,53.29h-1.11l-2.46-8.89-2.46,8.89h-1.11l-2.84-11.1h1.26l2.17,9,2.45-9h1.06l2.45,9,2.16-9h1.27Z" transform="translate(-0.11 0.12)" style="fill:#fff"/><path d="M147.25,53.29H146l-.89-2.51h-4.85l-.89,2.51H138.1l4.08-11.1h1l4.07,11.1Zm-6.64-3.54h4.13l-2.06-5.88Z" transform="translate(-0.11 0.12)" style="fill:#fff"/><path d="M154,42.29a3,3,0,0,1,3.29,3.09,2.87,2.87,0,0,1-2.41,3l2.63,5h-1.39l-2.52-4.93H151v4.93h-1.18V42.29ZM151,43.35v4.07h3a2,2,0,1,0,0-4.07Z" transform="translate(-0.11 0.12)" style="fill:#fff"/><path d="M164,42.19a3.67,3.67,0,0,1,2.91,1.17c1,1.06,1,2.68,1,4.38s0,3.32-1,4.38A3.67,3.67,0,0,1,164,53.29h-3.81V42.19Zm-2.62,1.06v9h2.41a2.79,2.79,0,0,0,2.19-.81c.71-.76.73-2.13.73-3.68s0-2.92-.73-3.68a2.79,2.79,0,0,0-2.19-.81Z" transform="translate(-0.11 0.12)" style="fill:#fff"/><path d="M171.36,53.29H169.9V51.82h1.46Z" transform="translate(-0.11 0.12)" style="fill:#fff"/><path d="M27.71,42.37H15a.71.71,0,0,1-.4-.13L4.31,34.61a.73.73,0,0,1-.24-.34L.14,21.8a.74.74,0,0,1,0-.39L4.07,8a.66.66,0,0,1,.25-.36L14.83,0a.69.69,0,0,1,.39-.12H27.49a.69.69,0,0,1,.39.12L38.39,7.64a.6.6,0,0,1,.25.35l3.93,13.42a.65.65,0,0,1,0,.39L38.64,34.27a.67.67,0,0,1-.24.34L28.11,42.24a.71.71,0,0,1-.4.13M15.52,41H26.07A118.77,118.77,0,0,0,13.5,30.31a94.21,94.21,0,0,0,2,10.71M14,29A117.66,117.66,0,0,1,27.28,40.33a111.14,111.14,0,0,0,1.85-16.27A73.69,73.69,0,0,0,14,29m16.47-4.35a114.42,114.42,0,0,1-1.77,15.49l8.45-6.28a33.19,33.19,0,0,0-6.68-9.21M5.79,34l8.11,6a94.67,94.67,0,0,1-1.8-10.12A34.58,34.58,0,0,0,5.79,34M1.92,23,5.05,32.9a36.14,36.14,0,0,1,6.32-4.11A99.25,99.25,0,0,0,1.92,23m29.38.65a33.49,33.49,0,0,1,6.55,8.69l3.14-10a81.39,81.39,0,0,0-9.69,1.28M13.11,15a73.57,73.57,0,0,0,.12,12.92,73.75,73.75,0,0,1,15.13-5,47.54,47.54,0,0,0-10.3-5.6c-1.62-.72-3.29-1.46-4.95-2.3M1.93,21.45a100,100,0,0,1,9.91,6A73.39,73.39,0,0,1,11.76,15a38.94,38.94,0,0,0-9.83,6.45M30,10.66a89.17,89.17,0,0,1,.54,11.74A86.59,86.59,0,0,1,40.59,21,66.16,66.16,0,0,0,30,10.66M14.12,14c1.42.71,2.83,1.34,4.49,2.07a48.56,48.56,0,0,1,10.58,5.8,87.69,87.69,0,0,0-.65-11.89,69,69,0,0,0-14.42,4M5,9.44,2.1,19.5a41.18,41.18,0,0,1,9-5.65A32.59,32.59,0,0,1,5,9.44m25.75.15a65.81,65.81,0,0,1,9.57,9.06L37.51,8.88c-2.22.15-4.48.38-6.72.71M15.63,1.53a67,67,0,0,0-2.32,11.31A68.79,68.79,0,0,1,27.45,8.77,113.35,113.35,0,0,0,15.63,1.53M5.75,8.25A30.84,30.84,0,0,0,12,12.81,67.37,67.37,0,0,1,14,2.26Zm22.79-6.1c.47,2.06.85,4.15,1.15,6.24,2.12-.33,4.27-.58,6.42-.75ZM17.86,1.22A108.25,108.25,0,0,1,28.22,7.67c-.33-2.16-.76-4.33-1.27-6.45Z" transform="translate(-0.11 0.12)" style="fill:#f0000a"/><path d="M110.32,10.68l-7.59,20.89H107l1.26-3.7h7.42l1.24,3.7h4.26l-7.64-20.89h-3.2Zm-.94,13.76,2.65-7.6,2.55,7.6Zm30.21-7.37c0-3.49-2.52-6.39-6.78-6.39h-8.19v20.9h4.08V23.24h2.94l4.08,8.34h4.72l-4.67-9A5.62,5.62,0,0,0,139.59,17.07Zm-7,2.76H128.7V14.32h3.85a2.76,2.76,0,1,1,0,5.51Zm26.71-2.76c0-3.49-2.53-6.39-6.78-6.39h-8.19v20.9h4.09V23.24h2.93l4.07,8.34h4.73l-4.66-9A5.62,5.62,0,0,0,159.26,17.07Zm-7,2.76h-3.83V14.32h3.83a2.76,2.76,0,1,1,0,5.51ZM164,10.68H168v20.9H164ZM185.43,21A5.85,5.85,0,0,1,187,25.41c0,4.05-3.37,6.34-7.75,6.34-3.17,0-5.57-.67-7.63-2.76l2.64-2.64a6.87,6.87,0,0,0,5,1.76c2.41,0,3.7-.91,3.7-2.58a2.32,2.32,0,0,0-.65-1.76,3,3,0,0,0-1.85-.74L178,22.68A7.13,7.13,0,0,1,174,21a5.56,5.56,0,0,1-1.5-4.11c0-3.73,2.77-6.34,7.28-6.34a9,9,0,0,1,6.75,2.44l-2.58,2.55a5.83,5.83,0,0,0-4.28-1.44c-2.18,0-3.23,1.2-3.23,2.64a2,2,0,0,0,.61,1.5A3.67,3.67,0,0,0,179,19l2.47.35a6.85,6.85,0,0,1,4,1.62ZM79.69,25.53c0,4.16-3,6.22-6.63,6.22-3,0-5.8-1.37-6.5-4.64l3.66-1.52a2.83,2.83,0,0,0,5.66-.18A2.68,2.68,0,0,0,73,22.54h-.16V19.21H73a2.4,2.4,0,0,0,2.64-2.6,2.57,2.57,0,1,0-5.14-.16L66.84,15A6,6,0,0,1,73,10.5c3.7,0,6.37,2.47,6.37,6A4.45,4.45,0,0,1,77,20.77a5,5,0,0,1,2.7,4.76ZM95.17,10.68h4.08v20.9H95.17V22.82H88.1v8.76H84V10.68H88.1v8.53h7.07ZM57.36,27.93h6.55v3.65H53.29V10.68h4.07Z" transform="translate(-0.11 0.12)" style="fill:#fff"/><path d="M196,12.09a3.19,3.19,0,0,1-6.38,0,3.19,3.19,0,0,1,6.38,0Zm-5.58,0a2.42,2.42,0,0,0,2.43,2.49,2.38,2.38,0,0,0,2.37-2.49,2.38,2.38,0,0,0-2.39-2.46A2.41,2.41,0,0,0,190.42,12.09Zm1.19,1.64V10.61a6.82,6.82,0,0,1,1.2-.11,1.77,1.77,0,0,1,1.08.25.86.86,0,0,1,.31.68.82.82,0,0,1-.65.72v0a.9.9,0,0,1,.57.78,2.41,2.41,0,0,0,.23.76h-.78a2.11,2.11,0,0,1-.25-.76c0-.34-.24-.49-.64-.49h-.34v1.25Zm.74-1.77h.35c.38,0,.72-.15.72-.45s-.21-.48-.67-.48a1.68,1.68,0,0,0-.4,0Z" transform="translate(-0.11 0.12)" style="fill:#fff"/></svg>