<svg id="Layer_1" data-name="Layer 1" xmlns="http://www.w3.org/2000/svg" viewBox="0 0 76.21 18.96"><defs><style>.cls-1{fill:#231f20;}.cls-2{fill:#ffca05;}</style></defs><title>Artboard 1</title><path class="cls-1" d="M24.14,16.85V16.5a1.8,1.8,0,0,0,.75.19c.32,0,.57-.14.57-.38s-.15-.38-.59-.53-.74-.39-.74-.79.38-.7.88-.7a1.77,1.77,0,0,1,.65.13v.33A1.58,1.58,0,0,0,25,14.6c-.33,0-.55.14-.55.38s.12.37.57.52.75.39.75.78-.35.72-.9.72A2.17,2.17,0,0,1,24.14,16.85Z"/><path class="cls-1" d="M28.07,17V15.77h-1.3V17h-.35V14.33h.35v1.15h1.3V14.33h.35V17Z"/><path class="cls-1" d="M29.25,17V14.33h.35V17Z"/><path class="cls-1" d="M30.79,15.93v1h-.35V14.33h.81a.78.78,0,0,1,.89.8c0,.51-.34.8-.89.8Zm0-1.31v1h.47a.47.47,0,0,0,.52-.51.49.49,0,0,0-.54-.51Z"/><path class="cls-1" d="M33.11,15.93v1h-.35V14.33h.8c.56,0,.9.3.9.8s-.34.8-.9.8Zm0-1.31v1h.47a.47.47,0,0,0,.52-.51.49.49,0,0,0-.55-.51Z"/><path class="cls-1" d="M35.07,17V14.33h.35V17Z"/><path class="cls-1" d="M38.32,17l-1.63-1.77-.08-.09V17h-.35V14.29h0l1.63,1.76.09.1V14.33h.35V17Z"/><path class="cls-1" d="M40.34,17a1.36,1.36,0,1,1,0-2.71,1.7,1.7,0,0,1,.78.18v.34a1.68,1.68,0,0,0-.79-.2,1,1,0,1,0,0,2.07,1.3,1.3,0,0,0,.52-.1v-.79h.34v1A2,2,0,0,1,40.34,17Z"/><path class="cls-1" d="M42.69,17V14.33H43v2.33h1.13V17Z"/><path class="cls-1" d="M44.73,17V14.33h.35V17Z"/><path class="cls-1" d="M46.33,15.28l-.07-.08V17h-.34V14.29h0l1.19,1.45,1.19-1.45h0V17H48V15.2l-.07.08-.79,1Z"/><path class="cls-1" d="M49.14,17V14.33h.35V17Z"/><path class="cls-1" d="M51.17,14.62V17h-.35V14.62H50v-.29H52v.29Z"/><path class="cls-1" d="M52.5,17V14.33h1.61v.29H52.85v.86h1.06v.29H52.85v.89h1.31V17Z"/><path class="cls-1" d="M54.8,17V14.33h.75a1.32,1.32,0,1,1,0,2.63Zm.35-2.34v2h.41a1,1,0,1,0,0-2Z"/><polygon class="cls-2" points="10.47 4.61 14.04 14.35 12.3 14.35 12.3 18.96 20.93 18.96 13.97 0 7.26 0 7.26 4.61 10.47 4.61"/><polygon class="cls-2" points="4.91 14.35 4.91 4.61 4.93 4.61 4.93 0 0 0 0 18.96 9.97 18.96 9.97 14.35 4.91 14.35"/><path class="cls-1" d="M24.26,12V2.47H27V9.64h3.24V12Z"/><path class="cls-1" d="M37.18,10.7H34.3L33.72,12H30.85l4.83-9.63h.13L40.64,12H37.78ZM35.06,8.91h1.37a15.65,15.65,0,0,1-.67-1.76h0A15.65,15.65,0,0,1,35.06,8.91Z"/><path class="cls-1" d="M47.73,2.47V4.79H45.3V12H42.53V4.79H40.11V2.47Z"/><path class="cls-1" d="M55.71,9.27c0,1.8-1.34,2.89-3.82,2.89a7.79,7.79,0,0,1-2.9-.52V9a6.05,6.05,0,0,0,2.75.76c.84,0,1.28-.15,1.28-.49s-.62-.58-1.63-1c-1.53-.59-2.61-1.22-2.61-3s1.46-3,3.72-3a7,7,0,0,1,2.58.45V5.25a4.38,4.38,0,0,0-2.35-.61c-.77,0-1.25.22-1.25.61s.58.58,1.54,1C54.55,6.86,55.71,7.5,55.71,9.27Z"/><path class="cls-1" d="M62,2.27a5.52,5.52,0,0,1,2.7.62v2.5a5.21,5.21,0,0,0-2.42-.6,2.39,2.39,0,0,0-2.57,2.42,2.32,2.32,0,0,0,2.42,2.43A5.81,5.81,0,0,0,64.81,9v2.53a6.81,6.81,0,0,1-2.9.6A4.84,4.84,0,0,1,57,7.21,4.9,4.9,0,0,1,62,2.27Z"/><path class="cls-1" d="M71.13,2.27a4.9,4.9,0,0,1,5.08,4.94,5.07,5.07,0,0,1-10.14,0A4.9,4.9,0,0,1,71.13,2.27Zm0,7.37a2.32,2.32,0,0,0,2.3-2.43,2.3,2.3,0,1,0-4.59,0A2.33,2.33,0,0,0,71.13,9.64Z"/></svg>