<svg height="240.965799" viewBox="0 0 40.919974 23.874512" width="414.996653" xmlns="http://www.w3.org/2000/svg" xmlns:xlink="http://www.w3.org/1999/xlink"><symbol id="a" overflow="visible"/><g transform="translate(-155.42259 -84.25692)"><path d="m170.81527 85.69146c4.71565 0 8.57553 3.562226 8.91591 8.082191.0165-.216351.0276-.432703.0276-.651809 0-4.823136-4.00458-8.73263-8.94347-8.73263-4.93888 0-8.94209 3.909494-8.94209 8.73263 0 .219106.011.435458.0276.651809.34175-4.519965 4.20026-8.082191 8.91452-8.082191" fill="#701945"/><path d="m178.23325 85.520581c-.70418 0-1.38079.100598-2.02434.278367.28939.180519.72347.479555 1.07625.854381.31006-.03721.62425-.06063.94809-.06063 3.87504 0 7.04729 2.929706 7.32841 6.643521.0124-.176389.0221-.354157.0221-.536056 0-3.96324-3.29076-7.179582-7.35046-7.179582" fill="#f3b01c"/><path d="m183.73989 86.916533c-.27561 0-.54708.01792-.81304.05099.28388.188789.73174.516763.99357.839223 3.19153.08819 5.77811 2.483224 6.011 5.508018.0124-.14745.0193-.296277.0193-.445107 0-3.286619-2.78226-5.953125-6.21081-5.953125" fill="#de2623"/><path d="m159.03856 95.91788s-.65182-.497473-.15297-.957735c0 0 .30593-.267342.80478 0 0 0 5.09323 1.952678 11.83459.881945 0 0 3.14055-.574644 3.7524-.806154 0 0 5.63066-1.683963 8.88559-1.530999 0 0 3.90674-.152964 8.04361 1.149283 0 0 1.11069.191548.88056.957735 0 0-.11437.651814-1.22507.03721 0 0-6.05097-1.952682-11.87318-.689018-3.31832.719335-6.48642 1.759755-9.88053 2.115288-1.01011.106108-2.02434.173633-3.0372.190168-2.25034.03859-4.36562-.289387-6.53052-.862651-.50712-.133671-1.02526-.268718-1.50206-.48507" fill="#00945c"/><path d="m159.65041 96.991373c-.50161-.212217-1.02527-.09784-1.26229.418923 0 0-.65181 1.189246 1.18649 1.723926 4.35185 1.270548 8.6031 1.526868 13.06105.675238 1.2485-.239779 2.48185-.570508 3.68901-.964628 2.02571-.661459 4.13962-1.11621 6.2618-1.313268 3.31419-.311436 6.72896.246669 9.85022 1.372524 0 0 .80339.07717 1.07211-.766188 0 0 .30593-.841981-.91915-1.416625 0 0-4.29121-1.875507-10.60951-1.18649-1.62884.177768-3.23012.480935-4.81211.909507-2.80293.760677-5.5783 1.674315-8.49423 1.852083-1.78594.110243-3.61735-.06753-5.37986-.356912-1.23748-.202572-2.47909-.461645-3.64353-.94809" fill="#306194"/><path d="m182.37563 104.00972c0 .0937-.0386.17088-.113.23151-.0758.0593-.17363.0882-.29352.0882-.12264 0-.22186-.0289-.29628-.0882-.0758-.0606-.113-.1378-.113-.23151 0-.0965.0372-.17501.113-.23427.0744-.0593.17364-.0896.29628-.0896.11989 0 .21773.0303.29352.0896.0744.0593.113.13781.113.23427m-1.39595 0c0 .0937-.0386.17088-.11438.23151-.0758.0593-.17501.0882-.29627.0882-.12127 0-.21773-.0289-.29353-.0882-.0758-.0606-.11162-.1378-.11162-.23151 0-.0965.0358-.17501.11162-.23427.0758-.0593.17226-.0896.29353-.0896.12126 0 .22048.0303.29627.0896.0758.0593.11438.13781.11438.23427m2.40054 2.39641c0 .0772-.0496.14883-.14607.21635-.0992.0675-.20119.10197-.30179.10197h-3.48368c-.10198 0-.20257-.0344-.29903-.10197-.0992-.0675-.14883-.13918-.14883-.21635v-.47405c0-.10748.0248-.19154.073-.24942.0358-.0469.11576-.10611.23841-.17777l.50573-.29214v.75654h2.74506c0-.30179.01-.48507.0248-.55121.0193-.0979.0896-.18742.20257-.26321.19568-.11575.39274-.23151.5898-.34313zm0 0"/><path d="m176.02012 102.95552c0-.1006.0345-.20257.10198-.30041.0689-.0992.13918-.14745.21635-.14745h1.59577c-.11438.19706-.18328.31144-.29904.50849-.0758.11301-.16398.18191-.2632.20258-.0648.0179-.24943.0248-.5526.0248"/><path d="m185.01458 105.56139h-.8158v-3.07854c.21773.14194.4768.33762.77583.58843.0262.0345.04.1061.04.21635zm2.85667 1.16169h-1.00459v.22324c0 .2632-.13781.50436-.41479.72347-.27699.22049-.58429.32935-.92329.32935-.33899 0-.64492-.10886-.91915-.32935-.27423-.21911-.41065-.46164-.41065-.72485v-.97565h.8158v.7469c0 .13918.04.26045.11988.36518.0923.1254.22463.18879.39412.18879.16675 0 .30042-.0634.39826-.19017.0827-.10611.12402-.22738.12402-.3638v-3.50435c0-.17226.0882-.32109.26596-.44511.18328-.0978.36518-.19568.54984-.29628v3.49884h1.00459zm0 0"/><path d="m190.96495 102.86595c0 .0937-.0386.17225-.11438.23151-.0744.0606-.17364.091-.29628.091-.11851 0-.21635-.0303-.29214-.091-.0744-.0593-.113-.1378-.113-.23151 0-.0937.0386-.17226.113-.23151.0758-.0593.17363-.0909.29214-.0909.12264 0 .22186.0317.29628.0909.0758.0593.11438.1378.11438.23151m-.69178 2.13182v-.3886h-.50712c-.18466 0-.27698.0689-.27698.20946 0 .11989.0868.17914.26044.17914zm-.70556-2.13182c0 .0937-.0372.17225-.11299.23151-.0758.0606-.17502.091-.29628.091-.12127 0-.21773-.0303-.29353-.091-.0758-.0593-.11299-.1378-.11299-.23151 0-.0937.0372-.17226.11299-.23151.0758-.0593.17226-.0909.29353-.0909.12126 0 .22048.0317.29628.0909.0758.0593.11299.1378.11299.23151m1.52273 3.37757c0 .10335-.0207.20119-.0592.28939-.0551.12678-.13642.19017-.24667.19017h-3.9784l.57603-.75379h2.89112v-.46164h-.82958c-.21359 0-.39412-.0689-.54295-.20809-.14193-.13367-.21084-.28663-.21084-.46302 0-.19981.0758-.36931.22738-.51125.15159-.14194.3831-.21222.69453-.21222.062 0 .15572.001.2825.004.1254.004.22186.005.28939.005.38309 0 .68626-.0923.90674-.27836zm0 0"/><path d="m193.86296 106.72308h-1.82039v-4.25263c.18328.091.36518.18466.5457.27561.18053.11438.2701.25631.2701.41892v2.80431h1.00459zm0 0"/><path d="m196.11467 103.92566c0 .0923-.0386.17088-.113.22876-.0772.0606-.17501.0909-.2949.0909-.12264 0-.22186-.0303-.29627-.0909-.0758-.0579-.11163-.13643-.11163-.22876 0-.0951.0358-.17225.11163-.23426.0744-.0606.17363-.091.29627-.091.11989 0 .21773.0303.2949.091.0744.062.113.13918.113.23426m.0951 2.58658c0 .062-.0331.11162-.0992.15158-.0634.0413-.13505.0593-.21635.0593h-3.15295l.57877-.75241h2.07119c-.011-.1695-.011-.27561.006-.31971.0262-.0841.10886-.16123.24666-.23151l.56638-.27974zm0 0"/><path d="m160.5985 104.96608h1.13274l-.57739-1.62333zm1.01148-2.46393 1.61919 4.22093h-.88883l-.35003-1.00597h-1.65088l-.33763 1.00597h-.84749l1.60817-4.22093zm0 0"/><path d="m164.29302 102.50215v2.02847l1.49792-2.02847h.95774l-1.52411 2.06292 1.54065 2.15801h-1.02251l-1.44969-2.09875v2.09875h-.79927v-4.22093zm0 0"/><path d="m167.04909 102.50215h.83785v4.2223h-.83785zm0 0"/><path d="m168.92874 106.28211c-.29077-.34176-.34313-.71107-.34313-1.26918v-2.51078h.79788v2.48046c0 .34727.007.59945.13229.76482.17088.22324.39687.27698.73587.27698h.94258v.69867h-1.01148c-.54983 0-.9164-.04-1.25401-.44097"/><path d="m172.28701 104.96608h1.13275l-.5774-1.62333zm1.01011-2.46393 1.62057 4.22093h-.89021l-.34864-1.00597h-1.65227l-.33762 1.00597h-.8475l1.60817-4.22093zm0 0"/><path d="m174.29344 103.24215v-.73449h2.75607l-.18465.73449h-.51677v3.4823h-.82682v-3.4823zm0 0"/><path d="m156.56635 102.50215 1.55581 3.03306-.0372-3.03306h.81442v4.22093h-.92604l-1.63435-3.19292.0372 3.19292h-.82131v-4.22093zm0 0"/><use fill="#fff" height="100%" transform="matrix(.35277777 0 0 .35277777 -76.342764 -80.669442)" width="100%" x="772.5882" xlink:href="#a" y="227.2959"/></g></svg>