<?xml version="1.0" encoding="utf-8"?>
<!-- Generator: Adobe Illustrator 25.2.0, SVG Export Plug-In . SVG Version: 6.00 Build 0)  -->
<svg version="1.1" xmlns="http://www.w3.org/2000/svg" xmlns:xlink="http://www.w3.org/1999/xlink" x="0px" y="0px"
	 viewBox="0 0 646.3 255.1" style="enable-background:new 0 0 646.3 255.1;" xml:space="preserve">
<style type="text/css">
	.st0{fill:#2D9190;}
</style>
<g id="NVL">
	<rect x="60.9" y="148.5" class="st0" width="524.4" height="2.8"/>
	<g>
		<g>
			<path d="M292.2,108.5c0,2.6-2.3,4.7-4.8,4.7c-2.5,0-4.7-2.1-4.7-4.7s2.3-4.8,4.7-4.8C290,103.8,292.2,106.1,292.2,108.5z"/>
		</g>
	</g>
	<g>
		<g>
			<path d="M379.5,108.5c0,2.6-2.3,4.7-4.8,4.7c-2.5,0-4.7-2.1-4.7-4.7s2.3-4.8,4.7-4.8C377.3,103.8,379.5,106.1,379.5,108.5z"/>
		</g>
	</g>
	<g>
		<path d="M396.4,69.3h25.7v2.9c-2.1,0-6.8-0.4-6.8,5.4v48c0,2.7,1.6,7.6,7.2,7.6h7.9c7.8,0,12.1-3.7,15.4-12.9
			c1.4,0.6,1.7,0.6,2.7,1.1c-0.7,2.9-3.5,13.5-4.2,15.9h-47.4v-2.8c1.7,0,7.2,0.5,7.2-6V76.8c0-2.9-3.1-4.7-7.5-4.7
			C396.4,71.4,396.4,69.6,396.4,69.3"/>
	</g>
	<g>
		<path d="M252.7,115.6V77.1c0-3.1-2.7-4.9-5.2-4.9h-3.5v-2.8c2.5,0,22.7,0,23.2,0V72h-2.4c-2.5,0-6.1,1.4-6.1,5.1v61.8h-3.1
			c-5.3-6.6-39.3-49.1-43.2-53.9v43.8c0,4.4,4.5,5.8,5.7,5.8h3.3v2.8h-23v-2.8h2.7c3.6,0,5.5-3.4,5.5-5.5V78.2
			c0-3.8-2.5-5.7-4.4-5.7h-4.3v-3.1c1.1,0,16.5,0,17.6,0C219.3,74.1,246.9,108.3,252.7,115.6"/>
	</g>
	<g>
		<path d="M299.7,69.1c4.4,0,23.9,0,26.7,0v2.9h-1.9c-3.5,0-4.7,1.5-4.7,2.7c0,0.4,0.2,1.3,0.8,3.1l15.1,43.5h0.2L350,80.8
			c1.1-3,1.2-4.8,1.2-5.5c0-2.4-1.9-3.2-5.2-3.2H344v-2.9c2.9,0,15.7,0,18.4,0v2.9h-1c-2.9,0-4.1,2-5,4.3
			c-6.3,16.9-22.6,62.5-22.6,62.5h-3.3l-22.5-61.2c-1.6-4.4-3.5-5.6-7.1-5.6h-1.2V69.1z"/>
	</g>
</g>
<g id="NVL_Group">
	<g>
		<path d="M216.1,165.5v19.1h-3.3l-9.7-16.2h-0.1v16.2h-2.4v-19.1h3.6l9.3,15.8h0.1v-15.8H216.1z"/>
		<path d="M247.8,165.5l-7,19.1h-2.9l-6.8-19.1h2.7l5.7,16.4h0.1l5.7-16.4H247.8z"/>
		<path d="M262.6,184.6v-19.1h2.7v16.9h8.9v2.3H262.6z"/>
		<path d="M321.4,170.3c-0.5-2.3-2.5-2.9-4.5-2.9c-4.7,0-6.4,4.1-6.3,7.7c0.2,4.9,1.7,7.6,7.2,7.7c1.3,0,2.6-0.2,3.8-0.6v-5.4h-4.3
			v-2.3h7v9.5c-2.2,0.7-4.4,1.1-6.6,1.1c-2.7,0-4.9-0.3-7-2.2c-2.1-1.9-2.9-5.1-2.9-7.8c0-2,0.7-4.2,1.6-5.9
			c1.7-2.9,4.5-4.1,7.7-4.1c3.2,0,6.8,1.5,7,5.2H321.4z"/>
		<path d="M343.4,176v8.6h-2.7v-19.1h6.8c3.2,0,6.5,1,6.5,4.8c0,2.3-1.4,4.1-3.6,4.6v0.1c2.3,0.6,2.6,1.8,2.9,3.9
			c0.3,1.9,0.5,3.9,1.2,5.8h-2.8c-0.2-1.1-0.6-2.4-0.7-3.5c-0.2-1.7-0.2-3.3-1.1-4.2c-0.8-0.9-1.8-0.8-2.9-0.9H343.4z M343.3,173.7
			h4.4c2.9-0.1,3.6-1.5,3.6-3s-0.7-2.8-3.6-3h-4.4V173.7z"/>
		<path d="M377.9,165.1c6,0,8.7,4.4,8.7,10c0,5.6-2.8,10-8.7,10c-6,0-8.7-4.4-8.7-10C369.1,169.5,371.9,165.1,377.9,165.1z
			 M377.9,182.8c4.8,0,6-3.7,6-7.7c0-4.1-1.1-7.7-6-7.7c-4.9,0-6,3.6-6,7.7C371.9,179,373,182.8,377.9,182.8z"/>
		<path d="M417.8,177.1c0.1,4.9-2.5,8-7.7,8c-5.2,0-7.8-3-7.7-8v-11.6h2.7v12.2c0.1,3.3,2,5.1,5.1,5.1s5-1.8,5.1-5.1v-12.2h2.7
			V177.1z"/>
		<path d="M434.3,165.5h6.4c3.6-0.2,6.6,1.2,6.6,5.4c0,4-3.3,5.3-6.8,5.4h-3.6v8.4h-2.7V165.5z M441.1,173.9c0.3,0,3.4,0.2,3.4-3.1
			s-3.1-3.1-3.4-3.1h-4.2v6.1H441.1z"/>
	</g>
</g>
</svg>
