<svg width="140" height="62" viewBox="0 0 140 62" fill="none" xmlns="http://www.w3.org/2000/svg">
<g clip-path="url(#clip0_1190_8555)">
<path d="M133.498 20.543C135.245 20.522 137.25 20.103 138.866 19.668L119.12 0V7.12L132.579 20.526C132.881 20.537 133.183 20.547 133.498 20.543Z" fill="#3976BC"/>
<path d="M133.517 22.039C132.958 22.039 132.432 22.014 131.919 21.977L119.12 34.727V41.846L140 21.046C138.388 21.525 136.067 22.039 133.517 22.039Z" fill="#1D427C"/>
<path d="M118.666 17.821C121.31 17.849 123.503 18.511 125.626 19.152C127.115 19.602 128.645 20.057 130.372 20.32L109.974 0V20.09C112.337 18.917 115.164 17.784 118.666 17.821Z" fill="#3976BC"/>
<path d="M125.191 20.583C123.076 19.946 121.08 19.343 118.649 19.317C118.6 19.317 118.55 19.317 118.503 19.317C115.095 19.317 112.291 20.577 109.973 21.769V41.846L130.113 21.783C128.307 21.508 126.734 21.05 125.191 20.583Z" fill="#1D427C"/>
<path d="M4.361 49.2869H0V47.0959H10.925V49.2869H6.564V61.7699H4.361V49.2869Z" fill="#1D427C"/>
<path d="M24.0806 47.0959H26.2846V61.7699H24.0806V55.3649H14.9686V61.7699H12.7656V47.0959H14.9686V53.1739H24.0806V47.0959Z" fill="#1D427C"/>
<path d="M28.5635 47.0959H37.5845V49.2869H30.7665V53.1639H37.5845V55.3639H30.7665V59.5689H37.5845V61.7689H28.5635V47.0959Z" fill="#1D427C"/>
<path d="M51.1449 47.0959H53.3499V61.7699H51.2849L41.9189 50.4169H41.8729V61.7699H39.6699V47.0959H41.9359L51.1459 57.9479L51.1449 47.0959Z" fill="#1D427C"/>
<path d="M66.9198 58.3519H58.7948L57.2098 61.7699H54.8008L61.8928 47.0959H63.8218L70.9138 61.7699H68.5028L66.9198 58.3519ZM62.8578 49.5269L59.7848 56.2219H65.9288L62.8578 49.5269Z" fill="#1D427C"/>
<path d="M88.7532 47.0959H90.9562V61.7699H88.7532V50.8999H88.7072L81.7082 61.7699L74.6142 50.8999H74.5672V61.7699H72.3652V47.0959H74.5672L81.6612 58.1779L88.7532 47.0959Z" fill="#1D427C"/>
<path d="M104.528 58.3519H96.4022L94.8192 61.7699H92.4082L99.5012 47.0959H101.429L108.523 61.7699H106.111L104.528 58.3519ZM100.465 49.5269L97.3922 56.2219H103.538L100.465 49.5269Z" fill="#1D427C"/>
<path d="M123.878 47.0959H126.082V61.7699H123.878V47.0959Z" fill="#1D427C"/>
<path d="M137.06 51.285C136.761 49.549 135.569 48.486 133.709 48.486C131.23 48.486 130.563 49.856 130.563 50.858C130.563 51.962 131.39 52.655 133.112 53.195L135.314 53.892C138.092 54.759 139.376 56.13 139.376 57.907C139.376 60.284 137.128 62 133.778 62C130.608 62 128.361 60.592 128.085 57.656H130.287C130.472 59.26 131.434 60.38 133.891 60.38C135.796 60.38 137.173 59.356 137.173 58.063C137.173 56.924 136.048 56.189 134.465 55.668L132.238 54.935C129.643 54.085 128.36 52.812 128.36 50.92C128.36 48.389 130.861 46.863 133.73 46.863C136.623 46.863 138.873 48.311 139.126 51.285H137.06Z" fill="#1D427C"/>
<path d="M112.177 55.5139V61.7699H109.974V47.0959H115C118.352 47.0959 120.853 48.7159 120.853 51.5359C120.853 54.1629 118.8 55.9199 115.551 55.9199L122.345 61.7699H119.246L112.177 55.5139ZM112.177 54.3739C112.476 54.3939 112.797 54.3939 114.105 54.3939C117.479 54.3939 118.65 53.4809 118.65 51.5559C118.65 49.8379 117.25 49.2909 114.956 49.2909H112.178L112.177 54.3739Z" fill="#1D427C"/>
</g>
<defs>
<clipPath id="clip0_1190_8555">
<rect width="140" height="62" fill="white"/>
</clipPath>
</defs>
</svg>
