<svg xmlns="http://www.w3.org/2000/svg" viewBox="0 -0.03 146.02 32.03"><path d="m30.44 0 .8.76v4.55l-.8.76H19.93l-.8.76v24.41l-.8.76h-5.4l-.8-.76V6.83l-.8-.76H.8L0 5.31V.76L.8 0zm75.63.41L105.02 0H70l-.8.76v30.48l.8.76h5.4l.8-.76V6.83l.8-.76h8.47l.8.76v24.41l.8.76h5.4l.8-.76V6.83l.8-.76h8.47l.8.76v24.41l.8.76h5.4l.8-.76V5.06l-.44-.99-3.87-3.65zm-50.59 14.4L65.61.78l-.8-.78h-6.3l-1 .5-16.63 23.03V.76l-.8-.76h-5.4l-.8.76v30.48l.8.76h7.72l1.06-.53 7.04-9.75h.85l6.84 9.75 1.07.53h6.2l.8-.76-10.78-15.37zm85.19-1.86-.98-.54H123.3l-.74-.4-1.36-2.23V8.7l1.36-2.23.74-.4h18.54l.8-.76V.76l-.8-.76h-22.42l-.98.54-4.99 8.17v1.07l4.99 8.17.98.54h16.39l.74.4 1.7 2.78v1.07l-1.7 2.78-.74.4h-19.95l-.8.76v4.55l.8.76h23.84l.98-.54 5.33-8.72v-1.07l-5.33-8.72z"/></svg>